<svg xmlns="http://www.w3.org/2000/svg" xmlns:xlink="http://www.w3.org/1999/xlink" version="1.1" x="0px" y="0px" viewBox="0 0 100 125" style="enable-background:new 0 0 100 100;" xml:space="preserve"><path fill="#00f" d="M39.3,62.7c-4.1,0-7.4,3.3-7.4,7.4s3.3,7.4,7.4,7.4s7.4-3.3,7.4-7.4S43.4,62.7,39.3,62.7z M39.3,72.7  c-1.5,0-2.7-1.2-2.7-2.7s1.2-2.7,2.7-2.7S42,68.5,42,70S40.8,72.7,39.3,72.7z"/><path fill="#00f" d="M67.6,62.7c-4.1,0-7.4,3.3-7.4,7.4s3.3,7.4,7.4,7.4s7.4-3.3,7.4-7.4S71.7,62.7,67.6,62.7z M67.6,72.7  c-1.5,0-2.7-1.2-2.7-2.7s1.2-2.7,2.7-2.7s2.7,1.2,2.7,2.7C70.3,71.5,69.1,72.7,67.6,72.7z"/><path fill="#00f" d="M87,28.8c-0.5-0.9-1.5-1.3-2.5-1.3H22.1c-0.1,0-0.1,0-0.2,0L19,18.7c-0.6-2.2-2.6-3.7-4.8-3.7H6.5c-1.2,0-2.2,1.1-2.2,2.3  s1,2.3,2.2,2.3h7.6c0.4,0,0.6,0.2,0.7,0.6L27.2,57c0.6,2.2,2.6,3.7,4.8,3.7h1.1c0,0,32.2,0,42.4,0c1.4,0,2.7-1.6,3.1-3  c2.2-8.1,8.8-26.3,8.8-26.3C87.6,30.7,87.5,29.7,87,28.8z M57.525,34.2c1.436,0,2.6,1.164,2.6,2.6c0,1.436-1.164,2.6-2.6,2.6  c-1.436,0-2.6-1.164-2.6-2.6C54.925,35.364,56.089,34.2,57.525,34.2z M49.125,34.2c1.436,0,2.6,1.164,2.6,2.6  c0,1.436-1.164,2.6-2.6,2.6c-1.436,0-2.6-1.164-2.6-2.6C46.525,35.364,47.689,34.2,49.125,34.2z M60.725,50.75  c-0.3,0.2-0.7,0.4-1.1,0.4s-0.8-0.1-1.1-0.4c-3-2.9-7.8-2.9-10.7,0c-0.6,0.6-1.5,0.6-2.1,0c-0.6-0.6-0.6-1.5,0-2.1  c2.1-1.9,4.8-3,7.5-3c2.7,0,5.3,1,7.4,3c0.3,0.3,0.5,0.7,0.5,1C61.125,50.05,61.025,50.45,60.725,50.75z"/></svg>